<?xml version="1.0" encoding="UTF-8"?>
<svg version="1.1" xmlns="http://www.w3.org/2000/svg" width="2048" height="2048">
<path d="M0 0 C1.01443241 -0.00115384 2.02886482 -0.00230769 3.07403761 -0.0034965 C6.46467042 -0.00613805 9.8552555 -0.00166133 13.24588585 0.00279331 C15.70464793 0.00235711 18.16340997 0.00148129 20.62217176 0.00020415 C25.96340434 -0.00156462 31.3046227 -0.00023561 36.64585304 0.00384235 C44.58800686 0.00988921 52.53015366 0.01017706 60.47230936 0.00930037 C73.83370248 0.00798782 87.19509064 0.01132273 100.55648232 0.01731777 C113.78355115 0.02323732 127.01061792 0.02708423 140.23768806 0.02817059 C141.47189195 0.0282737 141.47189195 0.0282737 142.73102925 0.02837889 C146.90972634 0.02871723 151.08842343 0.02901861 155.26712053 0.02930576 C184.85520768 0.03140548 214.44329215 0.03814089 244.03137779 0.04760838 C272.77356515 0.05679457 301.51575176 0.06387732 330.25794029 0.06811619 C331.14409424 0.06824771 332.03024819 0.06837924 332.94325529 0.06851475 C341.84247864 0.06983329 350.741702 0.0711091 359.64092536 0.07235361 C377.76923499 0.07488974 395.89754456 0.07771099 414.02585411 0.08070469 C414.85934163 0.08084198 415.69282915 0.08097927 416.55157387 0.08112072 C472.19865157 0.09031945 527.84572774 0.10618524 583.49280357 0.12304783 C583.49280357 0.45304783 583.49280357 0.78304783 583.49280357 1.12304783 C582.36487389 1.27000095 581.2369442 1.41695408 580.07483482 1.56836033 C546.68174971 6.21107636 512.54012044 18.28058044 491.49280357 46.12304783 C475.92670317 68.38712603 467.24303133 92.06268996 470.80920982 119.56298923 C474.17569266 138.00919072 483.87123009 158.15439226 496.49280357 172.12304783 C497.34165123 173.0917783 497.34165123 173.0917783 498.20764732 174.08007908 C510.48309868 187.2379096 526.33114075 195.37390843 543.49280357 200.12304783 C544.7886953 200.49172072 546.08426886 200.86151377 547.37952232 201.23242283 C548.40690514 201.52632908 549.43428795 201.82023533 550.49280357 202.12304783 C550.01971764 202.90164158 549.5466317 203.68023533 549.05920982 204.48242283 C536.20321119 226.23487275 527.81292193 249.24456626 523.49280357 274.12304783 C523.37420982 274.80480076 523.25561607 275.48655369 523.13342857 276.1889658 C514.56304399 328.23619717 530.79438629 381.84372366 560.77014732 424.38867283 C585.05291703 457.95776746 620.18557429 482.2945916 661.30530357 489.49804783 C699.62570669 493.91263109 737.44654091 483.89527543 767.86780357 460.06054783 C774.95914011 454.14911434 781.8077468 447.98683615 788.21545982 441.33789158 C789.49280357 440.12304783 789.49280357 440.12304783 790.49280357 440.12304783 C790.71323326 442.08371189 790.71323326 442.08371189 790.93811607 444.08398533 C794.8389298 476.21118411 809.52808927 505.2894668 832.49280357 528.12304783 C833.2069442 528.83718845 833.92108482 529.55132908 834.65686607 530.28711033 C857.60058635 551.81345792 888.69537133 566.47003629 920.49280357 566.12304783 C945.43452691 565.25147055 966.91379637 558.18003408 984.49280357 540.12304783 C985.18116295 539.43211033 985.86952232 538.74117283 986.57874107 538.02929783 C991.30144879 532.99724244 994.41050195 527.2650701 997.49280357 521.12304783 C998.15280357 521.12304783 998.81280357 521.12304783 999.49280357 521.12304783 C999.53990498 561.20084658 999.58631891 601.27864611 999.63220787 641.35644627 C999.633106 642.14078483 999.63400412 642.92512338 999.63492946 643.73322978 C999.73119446 727.81842441 999.82300628 811.90362252 999.90584373 895.98883152 C999.90768606 897.85776541 999.9095284 899.7266993 999.91137073 901.59563319 C999.95003301 940.82982959 999.98807058 980.06402658 1000.02538702 1019.29822428 C1000.04413451 1039.00848565 1000.06300198 1058.7187469 1000.08198291 1078.42900805 C1000.08484532 1081.40212369 1000.0877043 1084.37523934 1000.09056313 1087.34835498 C1000.13458647 1133.10008053 1000.18117409 1178.85180169 1000.23523521 1224.60351658 C1000.23639647 1225.58632521 1000.23755773 1226.56913384 1000.23875417 1227.58172455 C1000.2574913 1243.42630183 1000.27644472 1259.27087886 1000.29542688 1275.11545585 C1000.35013508 1320.78363302 1000.40322916 1366.45180952 1000.4457655 1412.11999989 C1000.44664203 1413.06024131 1000.44751857 1414.00048273 1000.44842167 1414.96921632 C1000.46764073 1435.61578644 1000.48603819 1456.26235721 1000.50365904 1476.90892876 C1000.51076484 1485.21793462 1000.51798876 1493.52694037 1000.5252533 1501.83594608 C1000.52604549 1502.7452988 1000.52683768 1503.65465152 1000.52765388 1504.59156038 C1000.55318614 1533.83250527 1000.58831312 1563.07342885 1000.62853277 1592.31435693 C1000.66904373 1621.79928102 1000.70002167 1651.28419879 1000.71797384 1680.76914571 C1000.72046394 1684.85505443 1000.72306196 1688.94096307 1000.72572517 1693.02687168 C1000.72624328 1693.8277401 1000.72676138 1694.62860852 1000.72729519 1695.45374568 C1000.73573703 1708.07249113 1000.75430678 1720.69119997 1000.77723075 1733.30992657 C1000.79962836 1745.75583071 1000.81100481 1758.20170621 1000.81111856 1770.64763088 C1000.81147188 1777.29002098 1000.8167224 1783.93233234 1000.8354983 1790.57470366 C1000.91048426 1818.2657908 1000.44851804 1845.57574094 997.49280357 1873.12304783 C997.23876829 1875.77937215 996.98727268 1878.43585937 996.74201749 1881.09300779 C996.34350081 1884.33923429 995.50580924 1887.41810917 994.61780357 1890.56054783 C994.26460045 1891.82898533 993.91139732 1893.09742283 993.54749107 1894.40429783 C993.1994442 1895.63148533 992.85139732 1896.85867283 992.49280357 1898.12304783 C991.9072909 1900.26828753 991.3236858 1902.41404968 990.74280357 1904.56054783 C990.32658829 1906.08150476 989.91011474 1907.60239122 989.49280357 1909.12304783 C988.83280357 1909.12304783 988.17280357 1909.12304783 987.49280357 1909.12304783 C987.34842857 1909.70054783 987.20405357 1910.27804783 987.05530357 1910.87304783 C986.53447024 1912.95638116 986.01363691 1915.0397145 985.49280357 1917.12304783 C984.83280357 1917.12304783 984.17280357 1917.12304783 983.49280357 1917.12304783 C983.43092857 1918.29867283 983.36905357 1919.47429783 983.30530357 1920.68554783 C982.79573172 1924.78365384 981.43465953 1927.00040958 978.90295982 1930.18164158 C976.23580017 1933.85360376 974.42743095 1938.03151674 972.49280357 1942.12304783 C971.83280357 1942.12304783 971.17280357 1942.12304783 970.49280357 1942.12304783 C970.16280357 1943.77304783 969.83280357 1945.42304783 969.49280357 1947.12304783 C968.83280357 1947.12304783 968.17280357 1947.12304783 967.49280357 1947.12304783 C967.09061607 1948.20586033 967.09061607 1948.20586033 966.68030357 1949.31054783 C965.49378996 1952.12071166 964.21794719 1954.60721339 962.49280357 1957.12304783 C961.83280357 1957.12304783 961.17280357 1957.12304783 960.49280357 1957.12304783 C960.24530357 1957.67992283 959.99780357 1958.23679783 959.74280357 1958.81054783 C958.26919404 1961.53672547 956.44983349 1963.71869678 954.49280357 1966.12304783 C953.61331507 1967.390779 952.73842846 1968.66171319 951.86780357 1969.93554783 C951.08405357 1970.98742283 950.30030357 1972.03929783 949.49280357 1973.12304783 C948.83280357 1973.12304783 948.17280357 1973.12304783 947.49280357 1973.12304783 C947.41030357 1973.70054783 947.32780357 1974.27804783 947.24280357 1974.87304783 C946.27482571 1977.77698143 944.80586074 1979.16045387 942.49280357 1981.12304783 C941.83280357 1981.12304783 941.17280357 1981.12304783 940.49280357 1981.12304783 C940.09061607 1982.02023533 940.09061607 1982.02023533 939.68030357 1982.93554783 C938.49362951 1985.12152637 937.39681245 1986.53637377 935.49280357 1988.12304783 C934.83280357 1988.12304783 934.17280357 1988.12304783 933.49280357 1988.12304783 C933.16280357 1989.11304783 932.83280357 1990.10304783 932.49280357 1991.12304783 C928.03566072 1995.12304783 928.03566072 1995.12304783 925.49280357 1995.12304783 C925.16280357 1996.11304783 924.83280357 1997.10304783 924.49280357 1998.12304783 C923.17280357 1998.12304783 921.85280357 1998.12304783 920.49280357 1998.12304783 C920.49280357 1998.78304783 920.49280357 1999.44304783 920.49280357 2000.12304783 C918.84280357 2000.78304783 917.19280357 2001.44304783 915.49280357 2002.12304783 C915.49280357 2002.78304783 915.49280357 2003.44304783 915.49280357 2004.12304783 C913.84280357 2004.45304783 912.19280357 2004.78304783 910.49280357 2005.12304783 C910.49280357 2005.78304783 910.49280357 2006.44304783 910.49280357 2007.12304783 C909.08237401 2007.96689458 907.66416225 2008.79774279 906.24280357 2009.62304783 C905.45389732 2010.08711033 904.66499107 2010.55117283 903.85217857 2011.02929783 C901.49280357 2012.12304783 901.49280357 2012.12304783 897.49280357 2012.12304783 C897.49280357 2012.78304783 897.49280357 2013.44304783 897.49280357 2014.12304783 C896.56661217 2014.3782822 896.56661217 2014.3782822 895.62170982 2014.63867283 C894.77479576 2014.88101658 893.9278817 2015.12336033 893.05530357 2015.37304783 C892.23159264 2015.60507908 891.4078817 2015.83711033 890.55920982 2016.07617283 C888.01545895 2016.94461262 885.72006053 2017.92821739 883.29358482 2019.06445408 C878.35879595 2021.29525609 873.38467256 2022.60613882 868.11780357 2023.81054783 C867.24897545 2024.02259861 866.38014732 2024.23464939 865.48499107 2024.45312595 C854.38345014 2027.05607601 843.37391402 2027.2697103 832.0112896 2027.25447559 C830.56483719 2027.25612835 829.11838523 2027.25821604 827.67193401 2027.2606957 C823.70695313 2027.2662319 819.74199398 2027.26559555 815.77701049 2027.26391811 C811.45950464 2027.26318435 807.14200478 2027.26821616 802.82450151 2027.27249312 C794.265689 2027.28005889 785.70688274 2027.28226546 777.14806723 2027.28282218 C766.89441638 2027.28373722 756.64077128 2027.29040887 746.38712291 2027.297169 C721.60756543 2027.31321631 696.82800857 2027.31913067 672.04844683 2027.32391775 C660.32369823 2027.32625479 648.59895011 2027.32985754 636.87420189 2027.33361313 C596.7301299 2027.34644698 556.58605818 2027.35716673 516.44198418 2027.36061573 C513.92279439 2027.36083736 511.40360461 2027.36105915 508.88441482 2027.36128108 C506.35918929 2027.36150172 503.83396376 2027.3617222 501.30873823 2027.36194253 C496.2428147 2027.36238508 491.17689117 2027.3628322 486.11096764 2027.3632822 C484.22689104 2027.36344629 484.22689104 2027.36344629 482.3047523 2027.36361369 C441.57553628 2027.36724448 400.84633807 2027.38316619 360.11712887 2027.40647257 C317.04372675 2027.43107525 273.9703348 2027.44478875 230.89692545 2027.44598365 C226.16753737 2027.4461551 221.43814929 2027.44637053 216.70876122 2027.44661808 C214.96203152 2027.44670173 214.96203152 2027.44670173 213.18001435 2027.44678708 C194.45101504 2027.44793707 175.72203402 2027.45895463 156.99304088 2027.47350514 C138.16448104 2027.48787996 119.33594461 2027.49110152 100.50738078 2027.48306516 C89.32682552 2027.47861373 78.1463459 2027.4824501 66.9658006 2027.49830366 C59.48929652 2027.50807309 52.01284528 2027.5068567 44.53634165 2027.49686744 C40.28183862 2027.49148962 36.02748056 2027.49071917 31.77298969 2027.50337616 C-14.1042134 2027.63134877 -14.1042134 2027.63134877 -34.28844643 2018.07226658 C-36.53599831 2017.11072589 -38.69979883 2016.5240724 -41.06969643 2015.93554783 C-51.04199881 2013.09523635 -60.95426828 2006.85453797 -68.92907143 2000.31445408 C-70.69267246 1998.9830226 -72.5090151 1998.05698041 -74.50719643 1997.12304783 C-74.50719643 1996.46304783 -74.50719643 1995.80304783 -74.50719643 1995.12304783 C-76.15719643 1994.46304783 -77.80719643 1993.80304783 -79.50719643 1993.12304783 C-79.50719643 1992.46304783 -79.50719643 1991.80304783 -79.50719643 1991.12304783 C-80.49719643 1990.79304783 -81.48719643 1990.46304783 -82.50719643 1990.12304783 C-82.50719643 1989.46304783 -82.50719643 1988.80304783 -82.50719643 1988.12304783 C-83.08469643 1987.89617283 -83.66219643 1987.66929783 -84.25719643 1987.43554783 C-87.10311024 1985.77543144 -88.50561563 1983.73116825 -90.50719643 1981.12304783 C-91.6286808 1980.02476658 -91.6286808 1980.02476658 -92.77282143 1978.90429783 C-95.87523193 1975.74870315 -98.59549932 1972.41626429 -101.31969643 1968.93554783 C-101.82178627 1968.30712986 -102.32387611 1967.67871189 -102.8411808 1967.03125095 C-106.50719643 1962.36768006 -106.50719643 1962.36768006 -106.50719643 1960.12304783 C-107.41066811 1959.74696384 -107.41066811 1959.74696384 -108.33239174 1959.3632822 C-110.82806382 1957.94006553 -111.76770584 1956.68570782 -113.30407143 1954.27929783 C-114.02916908 1953.15201267 -114.02916908 1953.15201267 -114.76891518 1952.00195408 C-115.26004799 1951.21691502 -115.7511808 1950.43187595 -116.25719643 1949.62304783 C-116.76379799 1948.83800877 -117.27039955 1948.0529697 -117.79235268 1947.24414158 C-121.50719643 1941.40652997 -121.50719643 1941.40652997 -121.50719643 1939.12304783 C-122.16719643 1939.12304783 -122.82719643 1939.12304783 -123.50719643 1939.12304783 C-127.71028653 1932.04567962 -130.78559075 1925.01939518 -133.33141518 1917.18945408 C-134.43223282 1914.31855092 -135.61357889 1912.49895401 -137.50719643 1910.12304783 C-139.86067975 1905.24510162 -140.79967994 1900.47995834 -141.50719643 1895.12304783 C-141.97125893 1893.98222752 -141.97125893 1893.98222752 -142.44469643 1892.81836033 C-151.56970015 1869.67037295 -149.95375303 1839.01709344 -149.88471985 1814.6061945 C-149.88619157 1811.7509969 -149.89218697 1808.8958124 -149.89793295 1806.04062063 C-149.90799815 1799.87167469 -149.90720042 1793.70280866 -149.89888231 1787.53386122 C-149.88648664 1778.29873887 -149.89168099 1769.06368003 -149.90003024 1759.82855606 C-149.91376401 1744.08063606 -149.91341272 1728.33274523 -149.90518761 1712.58482265 C-149.89691201 1696.64275046 -149.89521029 1680.70069744 -149.90139961 1664.75862408 C-149.90198089 1663.24401677 -149.90198089 1663.24401677 -149.90257391 1661.69881133 C-149.90417386 1657.58579742 -149.90582 1653.47278352 -149.90752474 1649.35976965 C-149.92336457 1611.11586543 -149.92448132 1572.87197405 -149.91608238 1534.62806797 C-149.915834 1533.49650705 -149.91558561 1532.36494613 -149.9153297 1531.19909548 C-149.91508091 1530.06570865 -149.91483212 1528.93232181 -149.91457579 1527.76458992 C-149.90699894 1493.20137069 -149.90505546 1458.63815676 -149.90864372 1424.07493687 C-149.90887616 1421.75823649 -149.90910763 1419.44153611 -149.90933813 1417.12483573 C-149.91026958 1407.8144068 -149.91122558 1398.50397787 -149.91221742 1389.19354895 C-149.91496812 1363.16887624 -149.91668016 1337.14420351 -149.91757584 1311.11953068 C-149.91761677 1309.93454043 -149.91765771 1308.74955018 -149.91769989 1307.52865114 C-149.91892728 1269.78351728 -149.91554936 1232.03838527 -149.9090271 1194.29325199 C-149.90881635 1193.06946212 -149.90860561 1191.84567225 -149.90838847 1190.58479784 C-149.90495384 1170.71266409 -149.90129535 1150.84053037 -149.89761795 1130.96839666 C-149.88304953 1052.15877657 -149.88372573 973.34917176 -149.89830971 894.53955173 C-149.90197344 874.67731573 -149.90560665 854.81507972 -149.9090271 834.95284367 C-149.90923844 833.72976618 -149.90944979 832.50668869 -149.90966754 831.24654825 C-149.91613844 793.53988691 -149.91887847 755.83322685 -149.91757584 718.12656498 C-149.91753508 716.94245068 -149.91749433 715.75833639 -149.91745234 714.53833984 C-149.91651481 688.54232551 -149.91461369 662.54631131 -149.91184433 636.55029711 C-149.91085695 627.2483136 -149.9099177 617.94633008 -149.90899219 608.64434656 C-149.90876003 606.33036693 -149.90852384 604.0163873 -149.90828361 601.70240766 C-149.90470638 567.15060292 -149.90774526 532.59880417 -149.9153297 498.04700018 C-149.91557808 496.91543925 -149.91582647 495.78387833 -149.91608238 494.61802769 C-149.91633043 493.48856464 -149.91657848 492.35910159 -149.91683404 491.19541239 C-149.92511772 453.05927227 -149.92204658 414.92314753 -149.90624015 376.7870096 C-149.90458318 372.68716361 -149.90297305 368.5873176 -149.90139961 364.48747158 C-149.90100899 363.48133562 -149.90061837 362.47519966 -149.90021591 361.43857473 C-149.89431173 345.5433525 -149.89840458 329.64814948 -149.90670663 313.75292899 C-149.91466614 298.10215493 -149.91181385 282.4514131 -149.89766437 266.80064311 C-149.88969719 257.64010202 -149.88975725 248.47964959 -149.90210916 239.31911286 C-149.90950631 233.21505046 -149.90579279 227.11105625 -149.8935086 221.00700198 C-149.88686796 217.55987154 -149.88620975 214.11305668 -149.89595815 210.66591362 C-149.95222561 189.23062879 -149.60903043 167.0567857 -144.50719643 146.12304783 C-143.9677077 143.18935751 -143.4663834 140.25209426 -142.97204018 137.31054783 C-142.50719643 135.12304783 -142.50719643 135.12304783 -141.50719643 134.12304783 C-141.11150534 132.10993334 -140.76467452 130.08707575 -140.44469643 128.06054783 C-140.26809486 126.95582127 -140.0914933 125.8510947 -139.90954018 124.71289158 C-139.77676674 123.85824314 -139.6439933 123.0035947 -139.50719643 122.12304783 C-138.84719643 122.12304783 -138.18719643 122.12304783 -137.50719643 122.12304783 C-137.44532143 121.21554783 -137.38344643 120.30804783 -137.31969643 119.37304783 C-136.56912167 114.26102514 -134.41140357 109.77025343 -132.34752846 105.07031345 C-131.37293422 102.81192773 -130.43704892 100.53924157 -129.50329018 98.26367283 C-129.15339027 97.41579197 -128.80349037 96.56791111 -128.44298744 95.69433689 C-127.74604336 94.00498936 -127.05241612 92.31426892 -126.36242104 90.62207127 C-124.7438318 86.73297768 -123.20696117 83.39755241 -120.50719643 80.12304783 C-119.7553188 78.78135807 -119.02684552 77.42634121 -118.31969643 76.06054783 C-111.66568458 63.90801122 -102.1625901 51.07758054 -91.50719643 42.12304783 C-90.84719643 42.12304783 -90.18719643 42.12304783 -89.50719643 42.12304783 C-89.17719643 41.13304783 -88.84719643 40.14304783 -88.50719643 39.12304783 C-86.03700364 36.57545997 -83.23956228 34.38370231 -80.50719643 32.12304783 C-79.63321205 31.38570408 -78.75922768 30.64836033 -77.85875893 29.88867283 C-76.9796183 29.16164158 -76.10047768 28.43461033 -75.19469643 27.68554783 C-74.37356361 27.00621189 -73.5524308 26.32687595 -72.70641518 25.62695408 C-70.50719643 24.12304783 -70.50719643 24.12304783 -67.50719643 24.12304783 C-67.01219643 22.63804783 -67.01219643 22.63804783 -66.50719643 21.12304783 C-65.51719643 21.12304783 -64.52719643 21.12304783 -63.50719643 21.12304783 C-63.50719643 20.46304783 -63.50719643 19.80304783 -63.50719643 19.12304783 C-55.50250995 13.18831301 -46.87801277 9.39222743 -37.50719643 6.12304783 C-36.08929421 5.5636696 -34.67243087 5.00164161 -33.25719643 4.43554783 C-22.41916301 0.64223613 -11.40572181 -0.03233261 0 0 Z " fill="#00572D" transform="translate(594.5071964263916,14.876952171325684)"/>
<path d="M0 0 C1.01443241 -0.00115384 2.02886482 -0.00230769 3.07403761 -0.0034965 C6.46467042 -0.00613805 9.8552555 -0.00166133 13.24588585 0.00279331 C15.70464793 0.00235711 18.16340997 0.00148129 20.62217176 0.00020415 C25.96340434 -0.00156462 31.3046227 -0.00023561 36.64585304 0.00384235 C44.58800686 0.00988921 52.53015366 0.01017706 60.47230936 0.00930037 C73.83370248 0.00798782 87.19509064 0.01132273 100.55648232 0.01731777 C113.78355115 0.02323732 127.01061792 0.02708423 140.23768806 0.02817059 C141.47189195 0.0282737 141.47189195 0.0282737 142.73102925 0.02837889 C146.90972634 0.02871723 151.08842343 0.02901861 155.26712053 0.02930576 C184.85520768 0.03140548 214.44329215 0.03814089 244.03137779 0.04760838 C272.77356515 0.05679457 301.51575176 0.06387732 330.25794029 0.06811619 C331.14409424 0.06824771 332.03024819 0.06837924 332.94325529 0.06851475 C341.84247864 0.06983329 350.741702 0.0711091 359.64092536 0.07235361 C377.76923499 0.07488974 395.89754456 0.07771099 414.02585411 0.08070469 C414.85934163 0.08084198 415.69282915 0.08097927 416.55157387 0.08112072 C472.19865157 0.09031945 527.84572774 0.10618524 583.49280357 0.12304783 C583.49280357 0.45304783 583.49280357 0.78304783 583.49280357 1.12304783 C582.36487389 1.27000095 581.2369442 1.41695408 580.07483482 1.56836033 C546.68174971 6.21107636 512.54012044 18.28058044 491.49280357 46.12304783 C475.92670317 68.38712603 467.24303133 92.06268996 470.80920982 119.56298923 C474.17569266 138.00919072 483.87123009 158.15439226 496.49280357 172.12304783 C497.34165123 173.0917783 497.34165123 173.0917783 498.20764732 174.08007908 C510.48309868 187.2379096 526.33114075 195.37390843 543.49280357 200.12304783 C544.7886953 200.49172072 546.08426886 200.86151377 547.37952232 201.23242283 C548.40690514 201.52632908 549.43428795 201.82023533 550.49280357 202.12304783 C550.01971764 202.90164158 549.5466317 203.68023533 549.05920982 204.48242283 C536.20321119 226.23487275 527.81292193 249.24456626 523.49280357 274.12304783 C523.37420982 274.80480076 523.25561607 275.48655369 523.13342857 276.1889658 C514.56304399 328.23619717 530.79438629 381.84372366 560.77014732 424.38867283 C585.05291703 457.95776746 620.18557429 482.2945916 661.30530357 489.49804783 C699.62570669 493.91263109 737.44654091 483.89527543 767.86780357 460.06054783 C774.95914011 454.14911434 781.8077468 447.98683615 788.21545982 441.33789158 C789.49280357 440.12304783 789.49280357 440.12304783 790.49280357 440.12304783 C790.71323326 442.08371189 790.71323326 442.08371189 790.93811607 444.08398533 C794.8389298 476.21118411 809.52808927 505.2894668 832.49280357 528.12304783 C833.2069442 528.83718845 833.92108482 529.55132908 834.65686607 530.28711033 C857.60058635 551.81345792 888.69537133 566.47003629 920.49280357 566.12304783 C945.43452691 565.25147055 966.91379637 558.18003408 984.49280357 540.12304783 C985.18116295 539.43211033 985.86952232 538.74117283 986.57874107 538.02929783 C991.30144879 532.99724244 994.41050195 527.2650701 997.49280357 521.12304783 C998.15280357 521.12304783 998.81280357 521.12304783 999.49280357 521.12304783 C999.49280357 594.38304783 999.49280357 667.64304783 999.49280357 743.12304783 C620.32280357 743.12304783 241.15280357 743.12304783 -149.50719643 743.12304783 C-149.50719643 168.62304783 -149.50719643 168.62304783 -144.50719643 146.12304783 C-143.9677077 143.18935751 -143.4663834 140.25209426 -142.97204018 137.31054783 C-142.50719643 135.12304783 -142.50719643 135.12304783 -141.50719643 134.12304783 C-141.11150534 132.10993334 -140.76467452 130.08707575 -140.44469643 128.06054783 C-140.26809486 126.95582127 -140.0914933 125.8510947 -139.90954018 124.71289158 C-139.77676674 123.85824314 -139.6439933 123.0035947 -139.50719643 122.12304783 C-138.84719643 122.12304783 -138.18719643 122.12304783 -137.50719643 122.12304783 C-137.44532143 121.21554783 -137.38344643 120.30804783 -137.31969643 119.37304783 C-136.56912167 114.26102514 -134.41140357 109.77025343 -132.34752846 105.07031345 C-131.37293422 102.81192773 -130.43704892 100.53924157 -129.50329018 98.26367283 C-129.15339027 97.41579197 -128.80349037 96.56791111 -128.44298744 95.69433689 C-127.74604336 94.00498936 -127.05241612 92.31426892 -126.36242104 90.62207127 C-124.7438318 86.73297768 -123.20696117 83.39755241 -120.50719643 80.12304783 C-119.7553188 78.78135807 -119.02684552 77.42634121 -118.31969643 76.06054783 C-111.66568458 63.90801122 -102.1625901 51.07758054 -91.50719643 42.12304783 C-90.84719643 42.12304783 -90.18719643 42.12304783 -89.50719643 42.12304783 C-89.17719643 41.13304783 -88.84719643 40.14304783 -88.50719643 39.12304783 C-86.03700364 36.57545997 -83.23956228 34.38370231 -80.50719643 32.12304783 C-79.63321205 31.38570408 -78.75922768 30.64836033 -77.85875893 29.88867283 C-76.9796183 29.16164158 -76.10047768 28.43461033 -75.19469643 27.68554783 C-74.37356361 27.00621189 -73.5524308 26.32687595 -72.70641518 25.62695408 C-70.50719643 24.12304783 -70.50719643 24.12304783 -67.50719643 24.12304783 C-67.01219643 22.63804783 -67.01219643 22.63804783 -66.50719643 21.12304783 C-65.51719643 21.12304783 -64.52719643 21.12304783 -63.50719643 21.12304783 C-63.50719643 20.46304783 -63.50719643 19.80304783 -63.50719643 19.12304783 C-55.50250995 13.18831301 -46.87801277 9.39222743 -37.50719643 6.12304783 C-36.08929421 5.5636696 -34.67243087 5.00164161 -33.25719643 4.43554783 C-22.41916301 0.64223613 -11.40572181 -0.03233261 0 0 Z " fill="#A4C3B4" transform="translate(594.5071964263916,14.876952171325684)"/>
<path d="M0 0 C27.88025788 23.13468207 33.00628551 66.64403125 36.35595703 100.65771484 C36.56202477 102.91681014 36.75395693 105.17646944 36.9375 107.4375 C36.99534668 108.13375488 37.05319336 108.83000977 37.11279297 109.54736328 C40.94317101 158.00107715 41.18367232 228.74015704 9.70703125 269.3125 C4.62361545 275.17077482 0.07652982 280.12586106 -7.8125 281.5 C-14.82714119 281.91076728 -19.94522965 279.09634824 -25.1875 274.625 C-44.76760023 254.43302164 -50.23639852 220.07210318 -54.0625 193.4375 C-54.21493164 192.38916992 -54.36736328 191.34083984 -54.52441406 190.26074219 C-61.74108362 138.09185879 -61.40998686 72.70262634 -38.0625 24.4375 C-37.53914062 23.35082031 -37.01578125 22.26414062 -36.4765625 21.14453125 C-31.57578431 11.50929087 -26.1098927 3.07475817 -16.0625 -1.5625 C-10.52940435 -3.29859276 -5.12600761 -2.61531001 0 0 Z " fill="#75A48E" transform="translate(637.0625,900.5625)"/>
<path d="M0 0 C28.71138487 24.34226109 33.69428185 69.79983716 36.69580078 105.22998047 C36.75493652 105.95846191 36.81407227 106.68694336 36.875 107.4375 C36.93284668 108.13375488 36.99069336 108.83000977 37.05029297 109.54736328 C40.87627822 157.94550908 40.7481363 228.80896632 9.58203125 269.42578125 C4.54790333 275.25255243 -0.05367859 280.13765475 -7.875 281.5 C-14.88964119 281.91076728 -20.00772965 279.09634824 -25.25 274.625 C-56.11584984 242.79459235 -57.34624186 180.73123208 -57.375 139.4375 C-57.37600708 138.42815399 -57.37701416 137.41880798 -57.37805176 136.37887573 C-57.36631262 118.88772877 -56.53351445 101.77777585 -54.125 84.4375 C-53.98046387 83.39174805 -53.83592773 82.34599609 -53.68701172 81.26855469 C-49.98341848 55.58538652 -43.67013461 20.34483252 -23.125 2.4375 C-15.56368654 -2.95102224 -8.44385305 -4.22192652 0 0 Z " fill="#76A58F" transform="translate(637.125,393.5625)"/>
<path d="M0 0 C1.15242188 0.00064453 2.30484375 0.00128906 3.4921875 0.00195312 C11.98451856 0.04701856 11.98451856 0.04701856 13.125 1.1875 C14.5171875 1.31125 14.5171875 1.31125 15.9375 1.4375 C23.02810499 2.33485872 29.82293962 5.95374587 36.125 9.1875 C36.125 9.8475 36.125 10.5075 36.125 11.1875 C37.115 11.1875 38.105 11.1875 39.125 11.1875 C39.125 11.8475 39.125 12.5075 39.125 13.1875 C40.053125 13.455625 40.98125 13.72375 41.9375 14 C44.88281025 15.09727245 46.27517877 15.72107169 48.125 18.1875 C48.125 18.8475 48.125 19.5075 48.125 20.1875 C48.8675 20.414375 49.61 20.64125 50.375 20.875 C53.6675747 22.4464561 55.09997109 24.18745716 57.125 27.1875 C57.125 27.8475 57.125 28.5075 57.125 29.1875 C57.785 29.1875 58.445 29.1875 59.125 29.1875 C59.125 29.8475 59.125 30.5075 59.125 31.1875 C59.785 31.1875 60.445 31.1875 61.125 31.1875 C61.125 31.8475 61.125 32.5075 61.125 33.1875 C61.785 33.1875 62.445 33.1875 63.125 33.1875 C63.125 34.1775 63.125 35.1675 63.125 36.1875 C63.785 36.1875 64.445 36.1875 65.125 36.1875 C65.455 38.1675 65.785 40.1475 66.125 42.1875 C66.785 42.1875 67.445 42.1875 68.125 42.1875 C71.4157288 47.57232894 73.78507966 52.69185625 75.4375 58.78515625 C76.07346392 61.00741652 76.85877619 63.05798925 77.75 65.1875 C79.28456992 69.10385033 79.64247246 72.90862397 79.9140625 77.0859375 C80.00479105 79.24345823 80.00479105 79.24345823 81.125 81.1875 C81.2219531 83.5400384 81.2547905 85.8954695 81.25 88.25 C81.25257813 89.51972656 81.25515625 90.78945313 81.2578125 92.09765625 C81.125 95.1875 81.125 95.1875 80.125 96.1875 C79.93945263 97.72489248 79.80180798 99.26817583 79.6875 100.8125 C79.29804753 105.18441804 78.48330876 109.02201979 77.125 113.1875 C76.465 113.1875 75.805 113.1875 75.125 113.1875 C75.0425 114.363125 74.96 115.53875 74.875 116.75 C74.32655569 121.34219785 72.61630683 124.32999265 70.125 128.1875 C69.465 128.1875 68.805 128.1875 68.125 128.1875 C67.815625 128.97125 67.50625 129.755 67.1875 130.5625 C66.125 133.1875 66.125 133.1875 65.125 135.1875 C64.465 135.1875 63.805 135.1875 63.125 135.1875 C63.125 135.8475 63.125 136.5075 63.125 137.1875 C62.465 137.1875 61.805 137.1875 61.125 137.1875 C61.125 137.8475 61.125 138.5075 61.125 139.1875 C60.465 139.1875 59.805 139.1875 59.125 139.1875 C59.125 139.8475 59.125 140.5075 59.125 141.1875 C57.805 141.5175 56.485 141.8475 55.125 142.1875 C55.125 142.8475 55.125 143.5075 55.125 144.1875 C54.135 144.1875 53.145 144.1875 52.125 144.1875 C52.125 144.8475 52.125 145.5075 52.125 146.1875 C49.125 148.1875 49.125 148.1875 46.125 148.1875 C46.125 148.8475 46.125 149.5075 46.125 150.1875 C40.55859375 152.3359375 40.55859375 152.3359375 38.125 153.1875 C37.1659375 153.5484375 36.206875 153.909375 35.21875 154.28125 C29.3818577 155.91755659 23.19027591 155.39434173 17.1875 155.3125 C15.93130859 155.30347656 14.67511719 155.29445313 13.38085938 155.28515625 C10.29537478 155.26169249 7.21028795 155.22886201 4.125 155.1875 C4.125 154.5275 4.125 153.8675 4.125 153.1875 C3.17625 153.27 2.2275 153.3525 1.25 153.4375 C-3.90858405 153.46908317 -8.22983186 151.20960991 -12.875 149.1875 C-13.865 148.8575 -14.855 148.5275 -15.875 148.1875 C-15.875 147.5275 -15.875 146.8675 -15.875 146.1875 C-16.49375 146.043125 -17.1125 145.89875 -17.75 145.75 C-19.875 145.1875 -19.875 145.1875 -21.875 144.1875 C-21.875 143.5275 -21.875 142.8675 -21.875 142.1875 C-23.525 141.8575 -25.175 141.5275 -26.875 141.1875 C-26.875 140.5275 -26.875 139.8675 -26.875 139.1875 C-27.535 139.1875 -28.195 139.1875 -28.875 139.1875 C-28.875 138.5275 -28.875 137.8675 -28.875 137.1875 C-29.535 137.1875 -30.195 137.1875 -30.875 137.1875 C-30.875 136.5275 -30.875 135.8675 -30.875 135.1875 C-31.98875 134.8471875 -31.98875 134.8471875 -33.125 134.5 C-36.4175747 132.9285439 -37.84997109 131.18754284 -39.875 128.1875 C-39.875 127.5275 -39.875 126.8675 -39.875 126.1875 C-40.535 126.1875 -41.195 126.1875 -41.875 126.1875 C-43.1640625 124.7265625 -43.1640625 124.7265625 -44.5 122.8125 C-44.94601562 122.18601562 -45.39203125 121.55953125 -45.8515625 120.9140625 C-46.875 119.1875 -46.875 119.1875 -46.875 117.1875 C-47.535 117.1875 -48.195 117.1875 -48.875 117.1875 C-48.875 116.1975 -48.875 115.2075 -48.875 114.1875 C-49.535 114.1875 -50.195 114.1875 -50.875 114.1875 C-52.90935531 110.45784861 -53.875 108.51844958 -53.875 104.1875 C-54.535 104.1875 -55.195 104.1875 -55.875 104.1875 C-55.875 102.5375 -55.875 100.8875 -55.875 99.1875 C-56.535 99.1875 -57.195 99.1875 -57.875 99.1875 C-58.52535371 96.66775747 -59.17037493 94.14684065 -59.8125 91.625 C-59.99490234 90.92052734 -60.17730469 90.21605469 -60.36523438 89.49023438 C-66.00174705 67.25162982 -63.04106272 46.93071978 -51.875 27.1875 C-51.33875 26.21167969 -50.8025 25.23585938 -50.25 24.23046875 C-49.79625 23.55628906 -49.3425 22.88210938 -48.875 22.1875 C-48.215 22.1875 -47.555 22.1875 -46.875 22.1875 C-46.875 21.5275 -46.875 20.8675 -46.875 20.1875 C-46.215 20.1875 -45.555 20.1875 -44.875 20.1875 C-44.875 19.5275 -44.875 18.8675 -44.875 18.1875 C-44.215 18.1875 -43.555 18.1875 -42.875 18.1875 C-42.545 17.1975 -42.215 16.2075 -41.875 15.1875 C-41.215 15.1875 -40.555 15.1875 -39.875 15.1875 C-39.875 14.5275 -39.875 13.8675 -39.875 13.1875 C-39.215 13.1875 -38.555 13.1875 -37.875 13.1875 C-37.875 12.5275 -37.875 11.8675 -37.875 11.1875 C-35.625 9.6875 -35.625 9.6875 -32.875 8.1875 C-31.8540625 7.5996875 -31.8540625 7.5996875 -30.8125 7 C-28.875 6.1875 -28.875 6.1875 -24.875 6.1875 C-24.875 5.5275 -24.875 4.8675 -24.875 4.1875 C-16.29386679 0.54701925 -9.28773518 -0.10072316 0 0 Z " fill="#75A48E" transform="translate(1468.875,268.8125)"/>
<path d="M0 0 C3.4758757 1.44077749 6.74623417 3.11396759 10 5 C10 5.66 10 6.32 10 7 C10.99 7 11.98 7 13 7 C13 7.66 13 8.32 13 9 C13.66 9 14.32 9 15 9 C15 9.66 15 10.32 15 11 C15.66 11 16.32 11 17 11 C23.41182158 20.20943241 26.93504521 28.74349422 26 40 C25.49628746 42.4404004 24.82103574 44.63952225 24 47 C23.34 47 22.68 47 22 47 C22 48.32 22 49.64 22 51 C21.34 51 20.68 51 20 51 C19.67 52.65 19.34 54.3 19 56 C18.34 56 17.68 56 17 56 C17 56.66 17 57.32 17 58 C16.34 58 15.68 58 15 58 C15 58.66 15 59.32 15 60 C11.63316085 62.43160605 10.26649636 63 6 63 C6 63.66 6 64.32 6 65 C1.53665816 66.72293135 -2.10201231 67.22240791 -6.875 67.125 C-8.02742188 67.10695313 -9.17984375 67.08890625 -10.3671875 67.0703125 C-11.23601562 67.04710937 -12.10484375 67.02390625 -13 67 C-13 66.34 -13 65.68 -13 65 C-15.31 65 -17.62 65 -20 65 C-20 64.34 -20 63.68 -20 63 C-21.3921875 62.814375 -21.3921875 62.814375 -22.8125 62.625 C-26 62 -26 62 -29 60 C-29 59.34 -29 58.68 -29 58 C-29.66 58 -30.32 58 -31 58 C-31 57.34 -31 56.68 -31 56 C-31.99 55.67 -32.98 55.34 -34 55 C-34 54.34 -34 53.68 -34 53 C-34.66 53 -35.32 53 -36 53 C-38 50 -38 50 -38 47 C-38.66 47 -39.32 47 -40 47 C-40.13277344 46.36191406 -40.26554687 45.72382813 -40.40234375 45.06640625 C-40.66724609 43.82697266 -40.66724609 43.82697266 -40.9375 42.5625 C-41.11152344 41.73878906 -41.28554687 40.91507813 -41.46484375 40.06640625 C-41.80752994 38.02338796 -41.80752994 38.02338796 -43 37 C-43.07271741 34.64686445 -43.08370868 32.29166332 -43.0625 29.9375 C-43.05347656 28.64714844 -43.04445313 27.35679687 -43.03515625 26.02734375 C-43.02355469 25.02832031 -43.01195312 24.02929688 -43 23 C-42.34 23 -41.68 23 -41 23 C-40.505 18.545 -40.505 18.545 -40 14 C-39.34 14 -38.68 14 -38 14 C-38 13.01 -38 12.02 -38 11 C-37.34 11 -36.68 11 -36 11 C-36 10.34 -36 9.68 -36 9 C-35.34 9 -34.68 9 -34 9 C-34 8.34 -34 7.68 -34 7 C-33.34 7 -32.68 7 -32 7 C-32 6.34 -32 5.68 -32 5 C-31.01 5 -30.02 5 -29 5 C-29 4.34 -29 3.68 -29 3 C-27.02 2.67 -25.04 2.34 -23 2 C-23 1.34 -23 0.68 -23 0 C-22.06027344 -0.09087891 -22.06027344 -0.09087891 -21.1015625 -0.18359375 C-20.28429688 -0.26738281 -19.46703125 -0.35117188 -18.625 -0.4375 C-17.81289062 -0.51871094 -17.00078125 -0.59992188 -16.1640625 -0.68359375 C-10.21439932 -1.55349035 -6.19656374 -1.54172878 0 0 Z " fill="#A5C4B4" transform="translate(1417,104)"/>
<path d="M0 0 C0 0.66 0 1.32 0 2 C1.32 2 2.64 2 4 2 C7.12444429 4.67809511 9.43977363 7.17035345 11 11 C11.66 11 12.32 11 13 11 C17.07774329 18.59943067 19.77915585 26.60651736 17.39453125 35.17578125 C16.66106136 37.15279907 15.85819803 39.07428734 15 41 C14.608125 41.99 14.21625 42.98 13.8125 44 C13.544375 44.66 13.27625 45.32 13 46 C12.34 46 11.68 46 11 46 C11 46.66 11 47.32 11 48 C10.34 48 9.68 48 9 48 C9 48.66 9 49.32 9 50 C7.02 50.495 7.02 50.495 5 51 C5 51.66 5 52.32 5 53 C2.08175756 54.66674321 0.02405621 55.2432008 -3.328125 55.1953125 C-4.12734375 55.18886719 -4.9265625 55.18242187 -5.75 55.17578125 C-6.9875 55.15064453 -6.9875 55.15064453 -8.25 55.125 C-9.09046875 55.11597656 -9.9309375 55.10695313 -10.796875 55.09765625 C-12.86470604 55.07415817 -14.93238995 55.03828908 -17 55 C-17 54.34 -17 53.68 -17 53 C-18.32 53 -19.64 53 -21 53 C-21 52.34 -21 51.68 -21 51 C-21.763125 50.731875 -22.52625 50.46375 -23.3125 50.1875 C-28.54334467 47.87619654 -30.47663456 43.95971828 -33 39 C-33 37.68 -33 36.36 -33 35 C-33.66 35 -34.32 35 -35 35 C-35 29.06 -35 23.12 -35 17 C-34.34 17 -33.68 17 -33 17 C-32.87625 16.0925 -32.7525 15.185 -32.625 14.25 C-32.06984752 11.36320708 -31.68006642 9.3874628 -30 7 C-27.875 6.25 -27.875 6.25 -26 6 C-26 5.34 -26 4.68 -26 4 C-25.34 4 -24.68 4 -24 4 C-24 3.34 -24 2.68 -24 2 C-15.70657278 -1.29384343 -8.75691581 -1.79629042 0 0 Z " fill="#75A58E" transform="translate(1324,284)"/>
<path d="" fill="#000000" transform="translate(0,0)"/>
</svg>
